<svg width="90" height="51" viewBox="0 0 90 51" fill="none" xmlns="http://www.w3.org/2000/svg">
<g opacity="0.5">
<path d="M3.94683 6.46736C2.53079 4.147 4.68374 1.29034 7.30443 2.01233L63.7968 17.5756C65.0983 17.9342 66 19.1179 66 20.4679V48C66 49.6569 64.6569 51 63 51H32.8075C31.7617 51 30.7914 50.4554 30.2467 49.5628L3.94683 6.46736Z" fill="#0094FF" fill-opacity="0.55"/>
<path d="M4.37363 6.2069C3.1936 4.27326 4.98773 1.89272 7.17163 2.49437L63.664 18.0577C64.7486 18.3565 65.5 19.3429 65.5 20.4679V48C65.5 49.3807 64.3807 50.5 63 50.5H32.8075C31.936 50.5 31.1274 50.0462 30.6735 49.3023L4.37363 6.2069Z" stroke="#0094FF" stroke-opacity="0.51"/>
</g>
<path d="M65.7544 51C63.8969 51 62.3063 50.3532 60.9824 49.0596C59.6586 47.766 58.9978 46.2128 59 44.4V24.6C59 22.785 59.6619 21.2307 60.9858 19.9371C62.3097 18.6435 63.8992 17.9978 65.7544 18H86.0175C86.9744 18 87.7771 18.3168 88.4255 18.9504C89.0739 19.584 89.397 20.3672 89.3947 21.3C89.3947 22.235 89.0705 23.0193 88.4221 23.6529C87.7737 24.2865 86.9722 24.6022 86.0175 24.6H65.7544V44.4H82.6403V37.8H79.2632C78.3063 37.8 77.5036 37.4832 76.8552 36.8496C76.2068 36.216 75.8837 35.4328 75.886 34.5C75.886 33.565 76.2102 32.7807 76.8586 32.1471C77.507 31.5135 78.3085 31.1978 79.2632 31.2H86.0175C86.9744 31.2 87.7771 31.5168 88.4255 32.1504C89.0739 32.784 89.397 33.5672 89.3947 34.5V44.4C89.3947 46.215 88.7328 47.7693 87.4089 49.0629C86.0851 50.3565 84.4956 51.0022 82.6403 51H65.7544Z" fill="#0094FF"/>
</svg>
