<svg width="80" height="85" viewBox="0 0 80 85" fill="none" xmlns="http://www.w3.org/2000/svg">
<circle cx="40" cy="40" r="40" fill="#E3E3E3"/>
<path fill-rule="evenodd" clip-rule="evenodd" d="M30.4528 26.1622C30.4528 23.7322 31.4181 21.4018 33.1363 19.6836C34.8546 17.9653 37.185 17 39.615 17C42.045 17 44.3754 17.9653 46.0937 19.6836C47.8119 21.4018 48.7772 23.7322 48.7772 26.1622C48.7772 28.5922 47.8119 30.9226 46.0937 32.6409C44.3754 34.3591 42.045 35.3244 39.615 35.3244C37.185 35.3244 34.8546 34.3591 33.1363 32.6409C31.4181 30.9226 30.4528 28.5922 30.4528 26.1622ZM30.4528 39.9056C27.4153 39.9056 24.5023 41.1122 22.3544 43.26C20.2066 45.4078 19 48.3209 19 51.3583C19 53.1808 19.724 54.9286 21.0127 56.2173C22.3014 57.506 24.0492 58.23 25.8717 58.23H53.3583C55.1808 58.23 56.9286 57.506 58.2173 56.2173C59.506 54.9286 60.23 53.1808 60.23 51.3583C60.23 48.3209 59.0234 45.4078 56.8756 43.26C54.7277 41.1122 51.8147 39.9056 48.7772 39.9056H30.4528Z" fill="#AAAAAA"/>
<path d="M65 83.625C59.6925 83.625 55.375 79.3075 55.375 74C55.375 68.6925 59.6925 64.375 65 64.375C70.3075 64.375 74.625 68.6925 74.625 74C74.625 79.3075 70.3075 83.625 65 83.625ZM65 65.75C60.4488 65.75 56.75 69.4488 56.75 74C56.75 78.5512 60.4488 82.25 65 82.25C69.5512 82.25 73.25 78.5512 73.25 74C73.25 69.4488 69.5512 65.75 65 65.75Z" fill="#BBB6B6"/>
<path d="M65 78.8125C64.615 78.8125 64.3125 78.51 64.3125 78.125V69.875C64.3125 69.49 64.615 69.1875 65 69.1875C65.385 69.1875 65.6875 69.49 65.6875 69.875V78.125C65.6875 78.51 65.385 78.8125 65 78.8125Z" fill="#BBB6B6"/>
<path d="M69.125 74.6875H60.875C60.49 74.6875 60.1875 74.385 60.1875 74C60.1875 73.615 60.49 73.3125 60.875 73.3125H69.125C69.51 73.3125 69.8125 73.615 69.8125 74C69.8125 74.385 69.51 74.6875 69.125 74.6875Z" fill="#BBB6B6"/>
</svg>
