<svg width="31" height="31" viewBox="0 0 31 31" fill="none" xmlns="http://www.w3.org/2000/svg">
<circle cx="15.5" cy="15.5" r="15.5" fill="#E3E3E3"/>
<g clip-path="url(#clip0_122_1774)">
<path fill-rule="evenodd" clip-rule="evenodd" d="M12.2306 11.3844C12.2306 10.4868 12.5871 9.62599 13.2218 8.99128C13.8565 8.35657 14.7174 8 15.615 8C16.5126 8 17.3735 8.35657 18.0082 8.99128C18.6429 9.62599 18.9994 10.4868 18.9994 11.3844C18.9994 12.2821 18.6429 13.1429 18.0082 13.7776C17.3735 14.4123 16.5126 14.7689 15.615 14.7689C14.7174 14.7689 13.8565 14.4123 13.2218 13.7776C12.5871 13.1429 12.2306 12.2821 12.2306 11.3844ZM12.2306 16.4611C11.1085 16.4611 10.0325 16.9068 9.2391 17.7002C8.44572 18.4936 8 19.5697 8 20.6917C8 21.3649 8.26743 22.0105 8.74346 22.4865C9.21949 22.9626 9.86513 23.23 10.5383 23.23H20.6917C21.3649 23.23 22.0105 22.9626 22.4865 22.4865C22.9626 22.0105 23.23 21.3649 23.23 20.6917C23.23 19.5697 22.7843 18.4936 21.9909 17.7002C21.1975 16.9068 20.1215 16.4611 18.9994 16.4611H12.2306Z" fill="#AAAAAA"/>
</g>
<defs>
<clipPath id="clip0_122_1774">
<rect width="16" height="16" fill="white" transform="translate(8 8)"/>
</clipPath>
</defs>
</svg>
